<?xml version="1.0" standalone="yes"?>
<svg xmlns="http://www.w3.org/2000/svg" width="218" height="112">
<path style="fill:#fefeff; stroke:none;" d="M0 0L0 112L218 112L218 0L0 0z"/>
<path style="fill:#caddee; stroke:none;" d="M71 26L72 27L71 26z"/>
<path style="fill:#8db5dd; stroke:none;" d="M72 26L73 27L72 26z"/>
<path style="fill:#699bd1; stroke:none;" d="M73.1474 26.7863C67.3698 28.9905 71.2473 36.7266 76.8526 34.9321C82.6212 33.0853 78.7082 24.6647 73.1474 26.7863z"/>
<path style="fill:#8db5dd; stroke:none;" d="M77 26L78 27L77 26z"/>
<path style="fill:#a8c5e4; stroke:none;" d="M78 26L79 27L78 26z"/>
<path style="fill:#8db5dd; stroke:none;" d="M70 27L71 28L70 27z"/>
<path style="fill:#a8c5e4; stroke:none;" d="M79 27L80 28L79 27z"/>
<path style="fill:#caddee; stroke:none;" d="M82 27L82 32L83 32L83 29L84 29L84 31L85 31L82 27M13 28L13 29L21 29L13 28M54 28L54 29L61 29L54 28M69 28L70 29L69 28M11 29L12 30L11 29z"/>
<path style="fill:#699bd1; stroke:none;" d="M12 29C15.7059 45.0187 21.139 67.7258 29.5579 81.8519C31.6967 85.4406 38.088 86.0758 41.7222 84.3966C45.8757 82.4775 47.0184 73.9448 48.3333 70C52.8885 56.3346 57.5431 42.6973 62 29C41.6632 29.0157 48.3466 64.6314 36 76L26.8588 45L21.2978 30.6034L12 29z"/>
<path style="fill:#8db5dd; stroke:none;" d="M21 29L22 30L21 29z"/>
<path style="fill:#a8c5e4; stroke:none;" d="M69 29L69 32L70 32L69 29z"/>
<path style="fill:#caddee; stroke:none;" d="M80 29L80 32L81 32L80 29z"/>
<path style="fill:#a8c5e4; stroke:none;" d="M83 29C81.5611 35.5787 78.706 37.8379 72 38L72 39C79.3112 41.1603 89.0179 37.8209 83 29z"/>
<path style="fill:#caddee; stroke:none;" d="M130 29L131 30L130 29z"/>
<path style="fill:#699bd1; stroke:none;" d="M162 78C151.723 78 138.935 81.5598 139.001 68C139.012 65.5839 138.735 62.4717 140.603 60.6034C143.831 57.3755 158.059 61.7143 158.248 56C158.386 51.8462 150.469 53.0164 148 52.9992C140.043 52.9439 137.17 47.8818 139.318 40.0586C141.329 32.7347 153.505 37.2706 158.852 35.6821C161.314 34.9507 162.713 31.8953 160.392 30.027C157.646 27.816 151.302 29 148 29C143.875 29 135 27.3377 131.603 30.0278C129.25 31.8913 130.001 36.3832 130 39L130 64C130 68.6373 127.991 79.5044 131.028 83.2577C133.095 85.8127 138.127 84.9989 141 85C148.702 85.003 161.66 88.3426 162 78z"/>
<path style="fill:#a8c5e4; stroke:none;" d="M161 29L162 30L161 29z"/>
<path style="fill:#caddee; stroke:none;" d="M22 30L23 31L22 30M24 30L24 31L25 35L26 35L26 33L27 33L26 38L27 38L27 36L28 36L27 41L28 41L28 39L29 39L28 44L29 44L29 42L30 42L29 47L30 47L30 45L31 45L30 50L31 50L31 48L32 48L32 51L33 51C32.0543 44.5966 29.8694 33.3933 24 30z"/>
<path style="fill:#a8c5e4; stroke:none;" d="M61 30L62 31L61 30M64 30C59.8692 42.6951 55.5552 55.3345 51.3333 68C49.6606 73.0181 48.5697 80.4555 45.1566 84.581C41.9213 88.4917 36.3851 88.0319 32 87C35.1873 91.5112 44.7709 91.2283 48.1566 86.7716C55.9502 76.513 58.5909 57.2272 62.6667 45C64.2892 40.1324 67.3858 34.5405 64 30z"/>
<path style="fill:#caddee; stroke:none;" d="M65 30L66 31L65 30z"/>
<path style="fill:#a8c5e4; stroke:none;" d="M164 30C163.631 41.3383 150.382 38 142 38L142 50L144 50L144 41C150.625 41 174.512 43.029 164 30z"/>
<path style="fill:#caddee; stroke:none;" d="M165 30L166 31L165 30z"/>
<path style="fill:#8db5dd; stroke:none;" d="M12 31L13 32L12 31z"/>
<path style="fill:#a8c5e4; stroke:none;" d="M22 31L23 32L22 31M25.3333 31.6667L25.6667 32.3333L25.3333 31.6667z"/>
<path style="fill:#caddee; stroke:none;" d="M61 31L62 32L61 31M63 31L64 32L63 31M66 31L66 35L67 35L66 31M129 31L129 82L130 82C130 67.6891 134.508 44.1273 129 31M166 31L166 35L167 35L166 31M12 32L13 33L12 32z"/>
<path style="fill:#a8c5e4; stroke:none;" d="M51 32L52 33L51 32z"/>
<path style="fill:#caddee; stroke:none;" d="M69.3333 32.6667L69.6667 33.3333L69.3333 32.6667M85 32L85 35L86 35L85 32M23 33L24 34L23 33z"/>
<path style="fill:#a8c5e4; stroke:none;" d="M26 33L26 36L27 36L26 33z"/>
<path style="fill:#8db5dd; stroke:none;" d="M51 33L52 34L51 33M60 33L61 34L60 33M13 34L14 35L13 34z"/>
<path style="fill:#a8c5e4; stroke:none;" d="M23 34L24 35L23 34z"/>
<path style="fill:#caddee; stroke:none;" d="M60 34L61 35L60 34M62 34L63 35L62 34z"/>
<path style="fill:#8db5dd; stroke:none;" d="M70 34L71 35L70 34z"/>
<path style="fill:#a8c5e4; stroke:none;" d="M79 34L80 35L79 34z"/>
<path style="fill:#caddee; stroke:none;" d="M13 35L14 36L13 35z"/>
<path style="fill:#a8c5e4; stroke:none;" d="M50.3333 35.6667L50.6667 36.3333L50.3333 35.6667z"/>
<path style="fill:#caddee; stroke:none;" d="M71 35L72 36L71 35z"/>
<path style="fill:#a8c5e4; stroke:none;" d="M72 35L73 36L72 35z"/>
<path style="fill:#8db5dd; stroke:none;" d="M73.6667 35.3333L74.3333 35.6667L73.6667 35.3333z"/>
<path style="fill:#a8c5e4; stroke:none;" d="M76.6667 35.3333L77.3333 35.6667L76.6667 35.3333z"/>
<path style="fill:#caddee; stroke:none;" d="M78 35L79 36L78 35M81 35L82 36L81 35z"/>
<path style="fill:#a8c5e4; stroke:none;" d="M161 35L162 36L161 35z"/>
<path style="fill:#caddee; stroke:none;" d="M24 36L25 37L24 36z"/>
<path style="fill:#a8c5e4; stroke:none;" d="M27 36L27 39L28 39L27 36z"/>
<path style="fill:#8db5dd; stroke:none;" d="M59 36L60 37L59 36z"/>
<path style="fill:#caddee; stroke:none;" d="M65.3333 36.6667L65.6667 37.3333L65.3333 36.6667M80 36L81 37L80 36M163 36L164 37L163 36M166 36L166 40L167 40L166 36z"/>
<path style="fill:#8db5dd; stroke:none;" d="M14 37L15 38L14 37z"/>
<path style="fill:#a8c5e4; stroke:none;" d="M24 37L25 38L24 37z"/>
<path style="fill:#caddee; stroke:none;" d="M59 37L60 38L59 37M61 37L62 38L61 37M71 37L71 39L73 37L71 37M76 37L76 38L79 38L76 37M84 37L85 38L84 37z"/>
<path style="fill:#a8c5e4; stroke:none;" d="M139 37L139 51L140 51L139 37z"/>
<path style="fill:#caddee; stroke:none;" d="M14 38L15 39L14 38M49 38L50 39L49 38M25 39L26 40L25 39z"/>
<path style="fill:#a8c5e4; stroke:none;" d="M28 39L28 42L29 42L28 39M49 39L50 40L49 39z"/>
<path style="fill:#8db5dd; stroke:none;" d="M58 39L59 40L58 39z"/>
<path style="fill:#caddee; stroke:none;" d="M64.3333 39.6667L64.6667 40.3333L64.3333 39.6667M72 39L73 40L72 39M82.6667 39.3333L83.3333 39.6667L82.6667 39.3333M141 39L141 50L142 50L141 39z"/>
<path style="fill:#8db5dd; stroke:none;" d="M15 40L16 41L15 40z"/>
<path style="fill:#a8c5e4; stroke:none;" d="M25 40L26 41L25 40z"/>
<path style="fill:#caddee; stroke:none;" d="M58 40L59 41L58 40M60 40L61 41L60 40M74 40L74 41L82 41L74 40M164.667 40.3333L165.333 40.6667L164.667 40.3333M15 41L16 42L15 41M48 41L49 42L48 41M144 41L144 50L145 50L144 41M26 42L27 43L26 42z"/>
<path style="fill:#a8c5e4; stroke:none;" d="M29 42L29 45L30 45L29 42M48 42L49 43L48 42z"/>
<path style="fill:#8db5dd; stroke:none;" d="M57 42L58 43L57 42z"/>
<path style="fill:#caddee; stroke:none;" d="M63.3333 42.6667L63.6667 43.3333L63.3333 42.6667z"/>
<path style="fill:#8db5dd; stroke:none;" d="M16 43L17 44L16 43z"/>
<path style="fill:#a8c5e4; stroke:none;" d="M26 43L27 44L26 43z"/>
<path style="fill:#caddee; stroke:none;" d="M57 43L58 44L57 43M59 43L60 44L59 43M72 43L72 44L78 44L72 43M172 43L172 44L180 44L172 43M199 43L199 44L205 44L199 43M16 44L17 45L16 44M47 44L48 45L47 44z"/>
<path style="fill:#a8c5e4; stroke:none;" d="M70 44L71 45L70 44z"/>
<path style="fill:#699bd1; stroke:none;" d="M71 44L71 85L79 85L79 44L71 44z"/>
<path style="fill:#a8c5e4; stroke:none;" d="M91 44L92 45L91 44z"/>
<path style="fill:#699bd1; stroke:none;" d="M107 51C103.442 59.2474 97.459 66.2195 93.0154 74C91.5792 76.5149 89.0821 80.5607 91.1944 83.3966C94.4947 87.8273 112.75 85 118 85L118 78L101 78C105.595 65.8759 116.961 57.6585 117 44C110.596 44 99.0938 41.7513 93.3187 44.6034C90.863 45.8161 90.863 49.1839 93.3187 50.3966C96.9018 52.1661 103.075 51 107 51z"/>
<path style="fill:#caddee; stroke:none;" d="M117 44L118 45L117 44z"/>
<path style="fill:#699bd1; stroke:none;" d="M171 44L180.191 64L170 85C180.863 84.9916 183.114 78.3328 187 69L189 69C191.809 78.549 195.773 84.9921 206 85L196.287 63.4244L206 44C194.829 44.0395 195.566 52.0622 188 58C183.984 48.6802 181.4 44.0011 171 44z"/>
<path style="fill:#8db5dd; stroke:none;" d="M197 44L198 45L197 44z"/>
<path style="fill:#caddee; stroke:none;" d="M208 44L206 48L207 48L209 45L210 49L208 44M27.3333 45.6667L27.6667 46.3333L27.3333 45.6667z"/>
<path style="fill:#a8c5e4; stroke:none;" d="M30 45L30 48L31 48L30 45M47 45L48 46L47 45M56 45L57 46L56 45z"/>
<path style="fill:#caddee; stroke:none;" d="M62.3333 45.6667L62.6667 46.3333L62.3333 45.6667z"/>
<path style="fill:#8db5dd; stroke:none;" d="M70 45L70 84L71 84C71 72.8277 74.3111 55.274 70 45z"/>
<path style="fill:#a8c5e4; stroke:none;" d="M79 45L79 84L80 84C80 72.8277 83.3111 55.274 79 45z"/>
<path style="fill:#caddee; stroke:none;" d="M81 45L81 85L82 85L82 46L83 46C85.1568 55.0593 87.8407 82.301 81 89L81 90C85.8248 88.3034 84.9983 83.4365 85 79C85.0042 68.026 86.5499 55.7103 84 45L81 45z"/>
<path style="fill:#a8c5e4; stroke:none;" d="M117 45L117 50L118 50L117 45z"/>
<path style="fill:#caddee; stroke:none;" d="M119 45L119 51L120 51L120 46L121 46L122 54L123 54L122 45L119 45z"/>
<path style="fill:#a8c5e4; stroke:none;" d="M181 45L182 46L181 45z"/>
<path style="fill:#caddee; stroke:none;" d="M184 45L185 49L187 49L186 51L188 51L187 53L189 53L189 54L188 55L189 55L184 45z"/>
<path style="fill:#a8c5e4; stroke:none;" d="M196 45L197 46L196 45z"/>
<path style="fill:#caddee; stroke:none;" d="M205 45L206 46L205 45z"/>
<path style="fill:#a8c5e4; stroke:none;" d="M208 45C204.252 52.1229 197.41 59.7134 200 68L201 68C202.524 61.3384 212.522 51.2501 208 45z"/>
<path style="fill:#8db5dd; stroke:none;" d="M17 46L18 47L17 46z"/>
<path style="fill:#caddee; stroke:none;" d="M56 46L57 47L56 46M58 46L59 47L58 46z"/>
<path style="fill:#a8c5e4; stroke:none;" d="M82 46C82 56.3583 87.8649 89.4707 72 87C74.6963 90.8163 82.1671 91.2588 83.6821 85.8912C85.8913 78.0639 86.8209 52.3634 82 46M120 46L105 76C113.195 73.5897 126.038 53.9713 120 46z"/>
<path style="fill:#caddee; stroke:none;" d="M171 46L172 47L171 46M17 47L18 48L17 47z"/>
<path style="fill:#a8c5e4; stroke:none;" d="M27 47L28 48L27 47z"/>
<path style="fill:#8db5dd; stroke:none;" d="M172 47L173 48L172 47z"/>
<path style="fill:#a8c5e4; stroke:none;" d="M182 47L183 48L182 47M185 47L186 48L185 47M195 47L196 48L195 47z"/>
<path style="fill:#caddee; stroke:none;" d="M204 47L205 48L204 47z"/>
<path style="fill:#a8c5e4; stroke:none;" d="M31 48L37 70L38 70L31 48M46 48L47 49L46 48M55 48L56 49L55 48z"/>
<path style="fill:#caddee; stroke:none;" d="M61.3333 48.6667L61.6667 49.3333L61.3333 48.6667M172 48L173 49L172 48M183 48L184 49L183 48z"/>
<path style="fill:#8db5dd; stroke:none;" d="M203 48L204 49L203 48M18 49L19 50L18 49z"/>
<path style="fill:#caddee; stroke:none;" d="M28 49L29 50L28 49z"/>
<path style="fill:#8db5dd; stroke:none;" d="M46 49L47 50L46 49z"/>
<path style="fill:#caddee; stroke:none;" d="M55 49L56 50L55 49M57 49L58 50L57 49z"/>
<path style="fill:#8db5dd; stroke:none;" d="M173 49L174 50L173 49z"/>
<path style="fill:#a8c5e4; stroke:none;" d="M183 49L184 50L183 49M186 49L187 50L186 49M194 49L195 50L194 49z"/>
<path style="fill:#caddee; stroke:none;" d="M203 49L204 50L203 49M205 49L206 50L205 49M18 50L19 51L18 50z"/>
<path style="fill:#a8c5e4; stroke:none;" d="M28 50L29 51L28 50M91 50L92 51L91 50z"/>
<path style="fill:#caddee; stroke:none;" d="M117 50L118 51L117 50M142.667 50.3333L143.333 50.6667L142.667 50.3333M184 50L185 51L184 50z"/>
<path style="fill:#a8c5e4; stroke:none;" d="M202 50L203 51L202 50z"/>
<path style="fill:#caddee; stroke:none;" d="M209 50L210 51L209 50z"/>
<path style="fill:#a8c5e4; stroke:none;" d="M45.3333 51.6667L45.6667 52.3333L45.3333 51.6667M54 51L55 52L54 51z"/>
<path style="fill:#caddee; stroke:none;" d="M60.3333 51.6667L60.6667 52.3333L60.3333 51.6667z"/>
<path style="fill:#a8c5e4; stroke:none;" d="M106 51L107 52L106 51z"/>
<path style="fill:#caddee; stroke:none;" d="M139 51L140 52L139 51z"/>
<path style="fill:#a8c5e4; stroke:none;" d="M174 51L175 52L174 51z"/>
<path style="fill:#8db5dd; stroke:none;" d="M184 51L185 52L184 51z"/>
<path style="fill:#a8c5e4; stroke:none;" d="M187 51L188 52L187 51z"/>
<path style="fill:#8db5dd; stroke:none;" d="M193 51L194 52L193 51z"/>
<path style="fill:#caddee; stroke:none;" d="M204 51L205 52L204 51z"/>
<path style="fill:#8db5dd; stroke:none;" d="M19 52L20 53L19 52z"/>
<path style="fill:#caddee; stroke:none;" d="M29 52L30 53L29 52M31.3333 52.6667L31.6667 53.3333L31.3333 52.6667M33 52L33 55L34 55L33 52M54 52L55 53L54 52M56 52L57 53L56 52z"/>
<path style="fill:#a8c5e4; stroke:none;" d="M116 52L117 53L116 52M140 52L140 53L159 54L140 52z"/>
<path style="fill:#caddee; stroke:none;" d="M158 52L159 53L158 52M185 52L186 53L185 52M192 52L193 53L192 52z"/>
<path style="fill:#a8c5e4; stroke:none;" d="M201 52L202 53L201 52z"/>
<path style="fill:#caddee; stroke:none;" d="M208 52L209 53L208 52M19 53L20 54L19 53z"/>
<path style="fill:#a8c5e4; stroke:none;" d="M29 53L30 54L29 53z"/>
<path style="fill:#caddee; stroke:none;" d="M92 53C94.3323 56.5976 98.0129 55.9969 102 56L102 55L92 53z"/>
<path style="fill:#a8c5e4; stroke:none;" d="M93 53L93 55L103 55L103 53L93 53z"/>
<path style="fill:#caddee; stroke:none;" d="M103 53L104 54L103 53M118 53L119 54L118 53M161 53L162 64L163 64C164.28 59.659 164.333 56.2638 161 53z"/>
<path style="fill:#a8c5e4; stroke:none;" d="M175 53L176 54L175 53M188 53L189 54L188 53z"/>
<path style="fill:#8db5dd; stroke:none;" d="M192 53L193 54L192 53z"/>
<path style="fill:#caddee; stroke:none;" d="M203 53L204 54L203 53M207.333 53.6667L207.667 54.3333L207.333 53.6667M44 54L45 55L44 54z"/>
<path style="fill:#a8c5e4; stroke:none;" d="M53 54L54 55L53 54z"/>
<path style="fill:#caddee; stroke:none;" d="M59.3333 54.6667L59.6667 55.3333L59.3333 54.6667z"/>
<path style="fill:#a8c5e4; stroke:none;" d="M105 54L106 55L105 54z"/>
<path style="fill:#caddee; stroke:none;" d="M115 54L116 55L115 54z"/>
<path style="fill:#a8c5e4; stroke:none;" d="M161 54C160.222 64.2837 149.775 62 142 62L142 75L144 75L144 64C150.284 64 169.866 65.7054 161 54z"/>
<path style="fill:#caddee; stroke:none;" d="M186 54L187 55L186 54M191 54L192 55L191 54z"/>
<path style="fill:#a8c5e4; stroke:none;" d="M200 54L201 55L200 54z"/>
<path style="fill:#8db5dd; stroke:none;" d="M20 55L21 56L20 55z"/>
<path style="fill:#caddee; stroke:none;" d="M30 55L31 56L30 55M32.3333 55.6667L32.6667 56.3333L32.3333 55.6667M34 55L34 58L35 58L34 55z"/>
<path style="fill:#a8c5e4; stroke:none;" d="M44 55L45 56L44 55z"/>
<path style="fill:#caddee; stroke:none;" d="M53 55L54 56L53 55M55 55L56 56L55 55M104 55L105 56L104 55z"/>
<path style="fill:#a8c5e4; stroke:none;" d="M114 55L115 56L114 55z"/>
<path style="fill:#caddee; stroke:none;" d="M121.333 55.6667L121.667 56.3333L121.333 55.6667M176 55L177 56L176 55z"/>
<path style="fill:#8db5dd; stroke:none;" d="M191 55L192 56L191 55z"/>
<path style="fill:#caddee; stroke:none;" d="M202 55L203 56L202 55M206.333 55.6667L206.667 56.3333L206.333 55.6667M20 56L21 57L20 56z"/>
<path style="fill:#a8c5e4; stroke:none;" d="M30 56L31 57L30 56z"/>
<path style="fill:#8db5dd; stroke:none;" d="M104 56L105 57L104 56z"/>
<path style="fill:#caddee; stroke:none;" d="M116 56L117 57L116 56z"/>
<path style="fill:#8db5dd; stroke:none;" d="M177 56L178 57L177 56z"/>
<path style="fill:#caddee; stroke:none;" d="M187 56L188 57L187 56M190 56L191 57L190 56M199 56L200 57L199 56M201 56L202 57L201 56M43 57L44 58L43 57z"/>
<path style="fill:#a8c5e4; stroke:none;" d="M52 57L53 58L52 57z"/>
<path style="fill:#caddee; stroke:none;" d="M58.3333 57.6667L58.6667 58.3333L58.3333 57.6667z"/>
<path style="fill:#a8c5e4; stroke:none;" d="M103 57L104 58L103 57z"/>
<path style="fill:#caddee; stroke:none;" d="M113 57L114 58L113 57M120 57L121 58L120 57z"/>
<path style="fill:#8db5dd; stroke:none;" d="M158 57L159 58L158 57z"/>
<path style="fill:#caddee; stroke:none;" d="M177 57L178 58L177 57M205 57L206 58L205 57z"/>
<path style="fill:#8db5dd; stroke:none;" d="M21 58L22 59L21 58z"/>
<path style="fill:#caddee; stroke:none;" d="M31 58L32 59L31 58M33.3333 58.6667L33.6667 59.3333L33.3333 58.6667M35 58L35 61L36 61L35 58z"/>
<path style="fill:#a8c5e4; stroke:none;" d="M43 58L44 59L43 58z"/>
<path style="fill:#caddee; stroke:none;" d="M52 58L53 59L52 58M54 58L55 59L54 58z"/>
<path style="fill:#8db5dd; stroke:none;" d="M112 58L113 59L112 58z"/>
<path style="fill:#caddee; stroke:none;" d="M119.333 58.6667L119.667 59.3333L119.333 58.6667M158 58L159 59L158 58z"/>
<path style="fill:#8db5dd; stroke:none;" d="M178 58L179 59L178 58z"/>
<path style="fill:#caddee; stroke:none;" d="M198 58L199 59L198 58M200 58L201 59L200 58M21 59L22 60L21 59z"/>
<path style="fill:#a8c5e4; stroke:none;" d="M31 59L32 60L31 59z"/>
<path style="fill:#8db5dd; stroke:none;" d="M102 59L103 60L102 59z"/>
<path style="fill:#caddee; stroke:none;" d="M114 59L115 60L114 59M140 59L140 60L158 60L140 59M160 59L161 60L160 59M178 59L179 60L178 59z"/>
<path style="fill:#8db5dd; stroke:none;" d="M197 59L198 60L197 59z"/>
<path style="fill:#caddee; stroke:none;" d="M204 59L205 60L204 59M42 60L43 61L42 60z"/>
<path style="fill:#a8c5e4; stroke:none;" d="M51 60L52 61L51 60z"/>
<path style="fill:#caddee; stroke:none;" d="M57.3333 60.6667L57.6667 61.3333L57.3333 60.6667z"/>
<path style="fill:#a8c5e4; stroke:none;" d="M101 60L102 61L101 60z"/>
<path style="fill:#caddee; stroke:none;" d="M111 60L112 61L111 60M118 60L119 61L118 60z"/>
<path style="fill:#a8c5e4; stroke:none;" d="M139 60L139 77L140 77L139 60M179 60L180 61L179 60z"/>
<path style="fill:#caddee; stroke:none;" d="M197 60L198 61L197 60M199 60L200 61L199 60z"/>
<path style="fill:#8db5dd; stroke:none;" d="M22 61L23 62L22 61z"/>
<path style="fill:#caddee; stroke:none;" d="M32 61L33 62L32 61M34.3333 61.6667L34.6667 62.3333L34.3333 61.6667M36 61L36 64L37 64L36 61z"/>
<path style="fill:#a8c5e4; stroke:none;" d="M42 61L43 62L42 61z"/>
<path style="fill:#caddee; stroke:none;" d="M51 61L52 62L51 61M53 61L54 62L53 61z"/>
<path style="fill:#8db5dd; stroke:none;" d="M110 61L111 62L110 61z"/>
<path style="fill:#caddee; stroke:none;" d="M113 61L114 62L113 61M117.333 61.6667L117.667 62.3333L117.333 61.6667M142 61L142 62L159 62L142 61z"/>
<path style="fill:#a8c5e4; stroke:none;" d="M196 61L197 62L196 61z"/>
<path style="fill:#caddee; stroke:none;" d="M203 61L204 62L203 61M22 62L23 63L22 62z"/>
<path style="fill:#a8c5e4; stroke:none;" d="M32 62L33 63L32 62z"/>
<path style="fill:#8db5dd; stroke:none;" d="M100 62L101 63L100 62z"/>
<path style="fill:#caddee; stroke:none;" d="M110 62L111 63L110 62M112 62L113 63L112 62M141 62L141 75L142 75L141 62z"/>
<path style="fill:#a8c5e4; stroke:none;" d="M180 62L181 63L180 62z"/>
<path style="fill:#caddee; stroke:none;" d="M198 62L199 63L198 62z"/>
<path style="fill:#a8c5e4; stroke:none;" d="M50 63L51 64L50 63z"/>
<path style="fill:#caddee; stroke:none;" d="M56.3333 63.6667L56.6667 64.3333L56.3333 63.6667M99 63L100 64L99 63z"/>
<path style="fill:#a8c5e4; stroke:none;" d="M109 63L110 64L109 63z"/>
<path style="fill:#caddee; stroke:none;" d="M116 63L117 64L116 63z"/>
<path style="fill:#8db5dd; stroke:none;" d="M195 63L196 64L195 63z"/>
<path style="fill:#caddee; stroke:none;" d="M202 63L203 64L202 63z"/>
<path style="fill:#8db5dd; stroke:none;" d="M23 64L24 65L23 64z"/>
<path style="fill:#caddee; stroke:none;" d="M35.3333 64.6667L35.6667 65.3333L35.3333 64.6667M37 64L37 67L38 67L37 64z"/>
<path style="fill:#a8c5e4; stroke:none;" d="M41 64L42 65L41 64z"/>
<path style="fill:#caddee; stroke:none;" d="M50 64L51 65L50 64M52 64L53 65L52 64M111 64L112 65L111 64M144 64L142 75L142 76C146.581 75.0184 145 68.8838 145 65L161 65L144 64M198 64L199 65L198 64M201.333 64.6667L201.667 65.3333L201.333 64.6667M23 65L24 66L23 65M33 65L34 66L33 65z"/>
<path style="fill:#8db5dd; stroke:none;" d="M41 65L42 66L41 65M98 65L99 66L98 65z"/>
<path style="fill:#caddee; stroke:none;" d="M108 65L109 66L108 65M110 65L111 66L110 65M115 65L116 66L115 65z"/>
<path style="fill:#a8c5e4; stroke:none;" d="M180 65L181 66L180 65M196 65L197 66L196 65M33 66L34 67L33 66M49 66L50 67L49 66z"/>
<path style="fill:#caddee; stroke:none;" d="M55.3333 66.6667L55.6667 67.3333L55.3333 66.6667M97 66L98 67L97 66z"/>
<path style="fill:#a8c5e4; stroke:none;" d="M107 66L108 67L107 66z"/>
<path style="fill:#caddee; stroke:none;" d="M114.333 66.6667L114.667 67.3333L114.333 66.6667M179 66L180 67L179 66M199 66L200 67L199 66z"/>
<path style="fill:#8db5dd; stroke:none;" d="M24 67L25 68L24 67z"/>
<path style="fill:#caddee; stroke:none;" d="M36.3333 67.6667L36.6667 68.3333L36.3333 67.6667z"/>
<path style="fill:#a8c5e4; stroke:none;" d="M40.3333 67.6667L40.6667 68.3333L40.3333 67.6667z"/>
<path style="fill:#caddee; stroke:none;" d="M49 67L50 68L49 67M51 67L52 68L51 67M109 67L110 68L109 67z"/>
<path style="fill:#8db5dd; stroke:none;" d="M179 67L180 68L179 67z"/>
<path style="fill:#a8c5e4; stroke:none;" d="M197 67L198 68L197 67z"/>
<path style="fill:#caddee; stroke:none;" d="M201 67L200 68L202 69L201 71L203 71L205 78L207 78L206 80L208 80L209 89L209 90C215.249 85.8848 204.587 71.325 201 67M24 68L25 69L24 68M34 68L35 69L34 68z"/>
<path style="fill:#8db5dd; stroke:none;" d="M96 68L97 69L96 68z"/>
<path style="fill:#caddee; stroke:none;" d="M106 68L107 69L106 68M108 68L109 69L108 68M113 68L114 69L113 68M178 68L179 69L178 68M198 68L199 69L198 68z"/>
<path style="fill:#a8c5e4; stroke:none;" d="M34 69L35 70L34 69M48 69L49 70L48 69z"/>
<path style="fill:#caddee; stroke:none;" d="M54.3333 69.6667L54.6667 70.3333L54.3333 69.6667M95 69L96 70L95 69z"/>
<path style="fill:#a8c5e4; stroke:none;" d="M105 69L106 70L105 69z"/>
<path style="fill:#caddee; stroke:none;" d="M112.333 69.6667L112.667 70.3333L112.333 69.6667z"/>
<path style="fill:#8db5dd; stroke:none;" d="M187.667 69.3333L188.333 69.6667L187.667 69.3333z"/>
<path style="fill:#a8c5e4; stroke:none;" d="M198 69L199 70L198 69M201 69L202 70L201 69z"/>
<path style="fill:#8db5dd; stroke:none;" d="M25 70L26 71L25 70z"/>
<path style="fill:#caddee; stroke:none;" d="M37 70L38 71L37 70M39 70L40 71L39 70M48 70L49 71L48 70M50 70L51 71L50 70M107 70L108 71L107 70z"/>
<path style="fill:#a8c5e4; stroke:none;" d="M177 70L178 71L177 70M186 70L187 71L186 70z"/>
<path style="fill:#caddee; stroke:none;" d="M199 70L200 71L199 70M25 71L26 72L25 71M35 71L36 72L35 71z"/>
<path style="fill:#a8c5e4; stroke:none;" d="M39 71L40 72L39 71M94 71L95 72L94 71z"/>
<path style="fill:#caddee; stroke:none;" d="M104 71L105 72L104 71M111 71L112 72L111 71z"/>
<path style="fill:#a8c5e4; stroke:none;" d="M189 71L190 72L189 71M202 71L203 72L202 71M35 72L36 73L35 72M47 72L48 73L47 72z"/>
<path style="fill:#caddee; stroke:none;" d="M53.3333 72.6667L53.6667 73.3333L53.3333 72.6667M93 72L94 73L93 72z"/>
<path style="fill:#8db5dd; stroke:none;" d="M103 72L104 73L103 72z"/>
<path style="fill:#caddee; stroke:none;" d="M110.333 72.6667L110.667 73.3333L110.333 72.6667z"/>
<path style="fill:#a8c5e4; stroke:none;" d="M176 72L177 73L176 72M185 72L186 73L185 72z"/>
<path style="fill:#caddee; stroke:none;" d="M200 72L201 73L200 72z"/>
<path style="fill:#8db5dd; stroke:none;" d="M26 73L27 74L26 73z"/>
<path style="fill:#caddee; stroke:none;" d="M38 73L39 74L38 73M47 73L48 74L47 73M49 73L50 74L49 73z"/>
<path style="fill:#8db5dd; stroke:none;" d="M93 73L94 74L93 73z"/>
<path style="fill:#caddee; stroke:none;" d="M105 73L106 74L105 73M187 73L189 75L187 73M190 73L191 74L190 73M26 74L27 75L26 74z"/>
<path style="fill:#a8c5e4; stroke:none;" d="M38 74L39 75L38 74M92 74L93 75L92 74z"/>
<path style="fill:#caddee; stroke:none;" d="M102 74L103 75L102 74M109 74L110 75L109 74z"/>
<path style="fill:#8db5dd; stroke:none;" d="M175 74L176 75L175 74z"/>
<path style="fill:#a8c5e4; stroke:none;" d="M184 74L185 75L184 74M187 74C183.578 82.1759 180.371 87.5903 171 88L171 89C179.055 90.9168 194.192 83.9305 187 74M201 74L202 75L201 74z"/>
<path style="fill:#8db5dd; stroke:none;" d="M36 75L37 76L36 75z"/>
<path style="fill:#caddee; stroke:none;" d="M37 75L38 76L37 75z"/>
<path style="fill:#a8c5e4; stroke:none;" d="M46 75L47 76L46 75z"/>
<path style="fill:#caddee; stroke:none;" d="M52.3333 75.6667L52.6667 76.3333L52.3333 75.6667M91 75L92 76L91 75z"/>
<path style="fill:#8db5dd; stroke:none;" d="M101 75L102 76L101 75z"/>
<path style="fill:#caddee; stroke:none;" d="M104 75L105 76L104 75M108 75L109 76L108 75M174 75L175 76L174 75M186 75L187 76L186 75M191 75L192 76L191 75z"/>
<path style="fill:#8db5dd; stroke:none;" d="M27 76L28 77L27 76z"/>
<path style="fill:#caddee; stroke:none;" d="M46 76L47 77L46 76M48 76L49 77L48 76z"/>
<path style="fill:#8db5dd; stroke:none;" d="M91 76L92 77L91 76M174 76L175 77L174 76z"/>
<path style="fill:#a8c5e4; stroke:none;" d="M183 76L184 77L183 76z"/>
<path style="fill:#caddee; stroke:none;" d="M189 76L189 79L190 79L189 76z"/>
<path style="fill:#8db5dd; stroke:none;" d="M192 76L193 77L192 76z"/>
<path style="fill:#a8c5e4; stroke:none;" d="M202 76L203 77L202 76M205 76L206 77L205 76z"/>
<path style="fill:#caddee; stroke:none;" d="M27 77L28 78L27 77M90 77L91 78L90 77M101 77L102 78L101 77M140 77L140 78L161 78L140 77M173 77L174 78L173 77M185 77L186 78L185 77M192 77L193 78L192 77M203 77L204 78L203 77z"/>
<path style="fill:#a8c5e4; stroke:none;" d="M45 78L46 79L45 78z"/>
<path style="fill:#caddee; stroke:none;" d="M51.3333 78.6667L51.6667 79.3333L51.3333 78.6667z"/>
<path style="fill:#a8c5e4; stroke:none;" d="M90 78L91 79L90 78z"/>
<path style="fill:#caddee; stroke:none;" d="M118 78L119 79L118 78M164 78L164 82L165 82C165.653 80.0399 166 79.446 166 82L167 82L164 78M182 78L183 79L182 78z"/>
<path style="fill:#8db5dd; stroke:none;" d="M193 78L194 79L193 78z"/>
<path style="fill:#a8c5e4; stroke:none;" d="M203 78L204 79L203 78M206 78L207 79L206 78z"/>
<path style="fill:#8db5dd; stroke:none;" d="M28 79L29 80L28 79z"/>
<path style="fill:#caddee; stroke:none;" d="M45 79L46 80L45 79M47 79L48 80L47 79z"/>
<path style="fill:#a8c5e4; stroke:none;" d="M118.333 79.6667L118.667 80.3333L118.333 79.6667z"/>
<path style="fill:#caddee; stroke:none;" d="M120 81C124.75 81.6207 123.183 88.0321 119 88.8889C110.704 90.588 100.479 89 92 89L92 90C102.611 90 126.886 95.3755 123 79L120 81z"/>
<path style="fill:#a8c5e4; stroke:none;" d="M172 79L173 80L172 79z"/>
<path style="fill:#caddee; stroke:none;" d="M184 79L185 80L184 79M188 79L189 80L188 79M193 79L194 80L193 79M204 79L205 80L204 79M28 80L29 81L28 80z"/>
<path style="fill:#a8c5e4; stroke:none;" d="M121 80C119.74 91.179 100.49 87 92 87L92 89C98.1619 89 130.532 92.5984 121 80z"/>
<path style="fill:#caddee; stroke:none;" d="M162.333 80.6667L162.667 81.3333L162.333 80.6667z"/>
<path style="fill:#a8c5e4; stroke:none;" d="M165 80C161.387 91.3896 141.904 87 132 87L132 88C138.592 89.9484 173.717 92.8336 165 80z"/>
<path style="fill:#caddee; stroke:none;" d="M181 80L182 81L181 80M183.333 80.6667L183.667 81.3333L183.333 80.6667z"/>
<path style="fill:#8db5dd; stroke:none;" d="M194 80L195 81L194 80M204 80L205 81L204 80z"/>
<path style="fill:#a8c5e4; stroke:none;" d="M207 80L208 81L207 80M44 81L45 82L44 81z"/>
<path style="fill:#caddee; stroke:none;" d="M50.3333 81.6667L50.6667 82.3333L50.3333 81.6667z"/>
<path style="fill:#8db5dd; stroke:none;" d="M118 81L119 82L118 81z"/>
<path style="fill:#a8c5e4; stroke:none;" d="M171 81L172 82L171 81z"/>
<path style="fill:#caddee; stroke:none;" d="M187 81L188 82L187 81M194 81L195 82L194 81M205 81L206 82L205 81z"/>
<path style="fill:#8db5dd; stroke:none;" d="M29 82L30 83L29 82z"/>
<path style="fill:#caddee; stroke:none;" d="M44 82L45 83L44 82M46 82L47 83L46 82z"/>
<path style="fill:#a8c5e4; stroke:none;" d="M118.333 82.6667L118.667 83.3333L118.333 82.6667z"/>
<path style="fill:#caddee; stroke:none;" d="M120 82L120 85L121 85L120 82M170 82L171 83L170 82M180 82L181 83L180 82M182 82L183 83L182 82z"/>
<path style="fill:#8db5dd; stroke:none;" d="M195 82L196 83L195 82z"/>
<path style="fill:#caddee; stroke:none;" d="M29 83L30 84L29 83z"/>
<path style="fill:#8db5dd; stroke:none;" d="M90 83L91 84L90 83M170 83L171 84L170 83z"/>
<path style="fill:#caddee; stroke:none;" d="M186 83L187 84L186 83M206 83L207 84L206 83z"/>
<path style="fill:#8db5dd; stroke:none;" d="M30 84L31 85L30 84z"/>
<path style="fill:#caddee; stroke:none;" d="M43 84L44 85L43 84M45.3333 84.6667L45.6667 85.3333L45.3333 84.6667M49.3333 84.6667L49.6667 85.3333L49.3333 84.6667M70 84L71 85L70 84M90 84L91 85L90 84M130 84L131 85L130 84z"/>
<path style="fill:#8db5dd; stroke:none;" d="M131 84L132 85L131 84z"/>
<path style="fill:#a8c5e4; stroke:none;" d="M161 84L162 85L161 84z"/>
<path style="fill:#caddee; stroke:none;" d="M181 84L182 85L181 84z"/>
<path style="fill:#a8c5e4; stroke:none;" d="M196 84L197 85L196 84M206 84L207 85L206 84M209 84C205.744 87.5224 202.607 87.9981 198 87C201.212 91.5457 213.949 90.7168 209 84z"/>
<path style="fill:#caddee; stroke:none;" d="M33 85L33 86L41 86L33 85M73 85L73 86L77 86L73 85M163 85L164 86L163 85M171 85L171 86L177 86L171 85M185 85L186 86L185 85M199 85L199 86L205 86L199 85M208 85L209 86L208 85M80 86L81 87L80 86M119 86L120 87L119 86M180 86L181 87L180 86M207 86L208 87L207 86M31.3333 87.6667L31.6667 88.3333L31.3333 87.6667M33 87L33 88L41 88L33 87M48 87L49 88L48 87M71.3333 87.6667L71.6667 88.3333L71.3333 87.6667M73 87L73 88L77 88L73 87M91 87L92 88L91 87M131 87L132 88L131 87M166.333 87.6667L166.667 88.3333L166.333 87.6667M171 87L171 88L177 88L171 87M184 87L185 88L184 87M197.333 87.6667L197.667 88.3333L197.333 87.6667M199 87L199 88L205 88L199 87M47 88L48 89L47 88M132 88L133 89L132 88M183 88L184 89L183 88M32.6667 89.3333L33.3333 89.6667L32.6667 89.3333M45.6667 89.3333L46.3333 89.6667L45.6667 89.3333M72.6667 89.3333L73.3333 89.6667L72.6667 89.3333M133 89L133 90L166 90L133 89M171.667 89.3333L172.333 89.6667L171.667 89.3333M181.667 89.3333L182.333 89.6667L181.667 89.3333M198.667 89.3333L199.333 89.6667L198.667 89.3333M37 90L37 91L43 91L37 90M176.667 90.3333L177.333 90.6667L176.667 90.3333M203 90L203 91L206 91L203 90z"/>
</svg>
